<?xml version="1.0" encoding="UTF-8"?>
<svg width="671px" height="255px" viewBox="0 0 671 255" version="1.1" xmlns="http://www.w3.org/2000/svg" xmlns:xlink="http://www.w3.org/1999/xlink">
    <!-- Generator: Sketch 48 (47235) - http://www.bohemiancoding.com/sketch -->
    <title>business_directories</title>
    <desc>Created with Sketch.</desc>
    <defs>
        <circle id="path-1" cx="45.5" cy="45.5" r="45.5"></circle>
        <circle id="path-3" cx="45.5" cy="45.5" r="45.5"></circle>
        <circle id="path-5" cx="45.5" cy="45.5" r="45.5"></circle>
        <circle id="path-7" cx="38" cy="38" r="38"></circle>
        <circle id="path-9" cx="38" cy="38" r="38"></circle>
        <circle id="path-11" cx="38" cy="38" r="38"></circle>
        <circle id="path-13" cx="38" cy="38" r="38"></circle>
        <circle id="path-15" cx="38" cy="38" r="38"></circle>
        <circle id="path-17" cx="38" cy="38" r="38"></circle>
        <ellipse id="path-19" cx="49.4" cy="49.2592593" rx="49.4" ry="49.2592593"></ellipse>
        <path d="M0.217152,0.238933333 L0.217152,11.6450133 L16.1313984,11.6450133 C15.4454976,15.3298133 13.3615872,18.45312 10.2301056,20.5445333 L10.2301056,27.9425067 L19.78704,27.9425067 C25.3775808,22.8091733 28.6049088,15.2491733 28.6049088,6.27050667 C28.6049088,4.17909333 28.4162112,2.16906667 28.0665216,0.238933333 L0.217152,0.238933333 Z" id="path-21"></path>
        <path d="M0.000748800041,0.00224 L0.000748800041,7.64138667 C4.8657024,17.2786133 14.8651776,23.8866133 26.425152,23.8866133 C34.4088576,23.8866133 41.1031296,21.2456533 45.99504,16.7425067 L36.4381056,9.34453333 C33.7903488,11.11264 30.4035264,12.15872 26.425152,12.15872 C18.723744,12.15872 12.2046912,6.97162667 9.8789184,0.00224 L0.000748800041,0.00224 Z" id="path-23"></path>
        <path d="M3.7447488,0.571946667 C1.7417088,4.55242667 0.59904,9.05557333 0.59904,13.8133333 C0.59904,18.5710933 1.7417088,23.07424 3.7447488,27.05472 L13.6229184,19.4155733 C13.0321152,17.64672 12.695904,15.75616 12.695904,13.8133333 C12.695904,11.8705067 13.0321152,9.97994667 13.6229184,8.21109333 L13.6229184,0.571946667 L3.7447488,0.571946667 Z" id="path-25"></path>
        <path d="M0.000748800041,16.2519467 L9.8789184,23.8910933 C12.2046912,16.9217067 18.723744,11.7346133 26.425152,11.7346133 C30.7666944,11.7346133 34.6641984,13.22272 37.728288,16.1444267 L46.2099456,7.68693333 C41.0889024,2.92917333 34.396128,0.00746666667 26.425152,0.00746666667 C14.8651776,0.00746666667 4.8657024,6.61472 0.000748800041,16.2519467 Z" id="path-27"></path>
    </defs>
    <g id="OVERVIEW---UPSELLING-TRIGGER-01" stroke="none" stroke-width="1" fill="none" fill-rule="evenodd" transform="translate(-649.000000, -1581.000000)">
        <g id="business_directories" transform="translate(652.000000, 1581.000000)">
            <g id="Group-26" transform="translate(70.000000, 154.000000)">
                <g id="Page-1-Copy-6" transform="translate(0.000000, 10.000000)">
                    <mask id="mask-2" fill="white">
                        <use xlink:href="#path-1"></use>
                    </mask>
                    <use id="Mask" fill="#DC4E41" xlink:href="#path-1"></use>
                    <g id="Page-1" mask="url(#mask-2)">
                        <polygon id="Fill-1" fill="#DC4E41" points="0 91 91 91 91 0 0 0"></polygon>
                        <g id="Group-6" transform="translate(16.016000, 26.936000)" fill="#FFFFFF">
                            <path d="M0.364,18.564 C-1.33226763e-15,9.0272 8.372,0.2184 17.9088,0.0728 C22.7864,-0.364 27.5184,1.5288 31.2312,4.6592 C29.7024,6.3336 28.1736,7.9352 26.4992,9.5368 C23.2232,7.5712 19.3648,6.0424 15.5792,7.4256 C9.464,9.1 5.7512,16.3072 8.008,22.3496 C9.9008,28.6104 17.472,32.032 23.4416,29.4112 C26.4992,28.3192 28.5376,25.48 29.484,22.4224 C25.9168,22.3496 22.4224,22.4224 18.8552,22.2768 L18.8552,15.9432 L36.5456,15.9432 C36.9096,21.112 36.1816,26.6448 32.76,30.7216 C28.1736,36.6184 19.656,38.3656 12.8128,36.036 C5.5328,33.7064 0.2184,26.2808 0.364,18.564" id="Fill-2"></path>
                            <polygon id="Fill-4" points="48.048 10.6288728 53.2896 10.6288728 53.2896 15.9432728 58.604 15.9432728 58.604 21.1848728 53.2896 21.1848728 53.2896 26.4992728 48.048 26.4992728 48.048 21.1848728 42.7336 21.1848728 42.7336 15.9432728 48.048 15.9432728"></polygon>
                        </g>
                    </g>
                </g>
                <g id="Status/Ok" transform="translate(61.000000, 0.000000)">
                    <g>
                        <path d="M20.5,41 C9.17816263,41 0,31.8218374 0,20.5 C0,9.17816263 9.17816263,0 20.5,0 C31.8218374,0 41,9.17816263 41,20.5 C41,31.8218374 31.8218374,41 20.5,41 Z" id="Oval-221" fill="#FFFFFF" fill-rule="nonzero"></path>
                        <path d="M20.5,38 C30.1649831,38 38,30.1649831 38,20.5 C38,10.8350169 30.1649831,3 20.5,3 C10.8350169,3 3,10.8350169 3,20.5 C3,30.1649831 10.8350169,38 20.5,38 Z" id="Path" fill="#22C646"></path>
                        <path d="M12.54,22.0366776 C11.82,21.3202303 11.82,20.2455592 12.54,19.5291118 C13.26,18.8126645 14.34,18.8126645 15.06,19.5291118 L17.4,21.8575658 L26.94,12.3646382 C27.66,11.6481908 28.74,11.6481908 29.46,12.3646382 C30.18,13.0810855 30.18,14.1557566 29.46,14.8722039 L18.66,25.6189145 C17.94,26.3353618 16.86,26.3353618 16.14,25.6189145 L12.54,22.0366776 Z" id="Shape" fill="#FFFFFF"></path>
                    </g>
                </g>
            </g>
            <g id="Group-20" transform="translate(462.000000, 134.000000)">
                <g id="Page-1-Copy-4" transform="translate(0.000000, 11.000000)">
                    <mask id="mask-4" fill="white">
                        <use xlink:href="#path-3"></use>
                    </mask>
                    <g id="Mask">
                        <use fill="#FBFCFC" fill-rule="evenodd" xlink:href="#path-3"></use>
                        <circle stroke="#E0E4EB" stroke-width="2" cx="45.5" cy="45.5" r="46.5"></circle>
                    </g>
                    <g id="Page-1" mask="url(#mask-4)">
                        <g transform="translate(6.000000, 7.000000)">
                            <polygon id="Fill-1" fill="#FBFCFC" points="0 78 78 78 78 0 0 0"></polygon>
                            <g id="Group-8" stroke-width="1" fill="none" transform="translate(23.088000, 16.224000)">
                                <path d="M35.8343232,13.9443408 L6.0508032,13.9443408 C1.9723392,13.9443408 0.7380672,15.7152528 0.7380672,16.7885328 L0.7380672,43.5668688 C0.7380672,44.9084688 1.9186752,45.2841168 2.5626432,45.4444848 C3.2066112,45.6061008 4.9238592,45.7134288 6.1581312,45.0157968 C6.1581312,45.0157968 20.3254272,35.6782608 20.5394592,35.5709328 C20.7547392,35.4636048 20.8620672,35.4093168 21.0230592,35.4093168 L29.9849472,35.4093168 C33.7944672,35.4093168 34.5463872,33.9073488 34.9756992,32.9950608 C35.2976832,32.2437648 39.2688192,21.4573008 40.5024672,18.0228048 C41.4147552,15.3396048 40.2347712,13.9443408 35.8343232,13.9443408 M34.1170752,18.5057808 L32.7754752,22.1549328 C32.6144832,22.5305808 31.9705152,22.9062288 31.1655552,22.9062288 L19.5198432,22.9062288 C18.2325312,22.9062288 17.1586272,23.4965328 17.1586272,24.2478288 L17.1586272,25.0527888 C17.1586272,25.8040848 18.2325312,26.3943888 19.5198432,26.3943888 L29.3409792,26.3943888 C30.2532672,26.3943888 31.0045632,26.8773648 30.8435712,27.4140048 C30.6289152,27.9506448 29.6086752,30.8485008 29.5019712,31.1168208 C29.4483072,31.4388048 28.8037152,31.8681168 27.8914272,31.8681168 L19.8424512,31.8681168 C18.1788672,31.8681168 17.8032192,31.9217808 16.8372672,32.6194128 C15.8713152,33.2633808 7.0704192,39.4884048 7.0704192,39.4884048 C7.0167552,39.5414448 6.9094272,39.5414448 6.9094272,39.4884048 L6.9094272,18.3447888 C6.9094272,17.8618128 7.6607232,17.4325008 8.5193472,17.4325008 L32.6681472,17.4325008 C33.4731072,17.4325008 34.3317312,17.9154768 34.1170752,18.5057808" id="Fill-2" fill="#D8D8D8"></path>
                                <polygon id="Fill-4" fill="#FBFCFC" points="2.7235728 3.7479312 2.4552528 41.9030352 15.3882768 28.3260432 24.5641968 28.9163472 29.5555728 4.2845712 26.4967248 1.9770192"></polygon>
                                <path d="M28.6966992,0.3134976 L4.7088912,0.3134976 C1.4353872,0.3134976 0.4157712,2.7820416 0.4157712,4.3919616 L0.4157712,42.4934016 C0.4157712,44.3716416 1.3817232,44.9082816 1.9183632,45.1229376 C2.4550032,45.3375936 3.8502672,45.4992096 4.8162192,44.5326336 C4.8162192,44.5326336 16.1929872,31.2782496 16.4082672,31.0629696 C16.6222992,30.8483136 16.6759632,30.8483136 16.7832912,30.8483136 L23.9748912,30.8483136 C27.0331152,30.8483136 27.6234192,28.7017536 27.9990672,27.4138176 C28.2680112,26.3405376 31.4335632,10.9389696 32.4538032,6.1092096 C33.1514352,2.2990656 32.2385232,0.3134976 28.6966992,0.3134976 M27.3020592,6.8068416 L26.2281552,12.0122496 C26.1208272,12.5488896 25.5848112,13.0318656 24.9402192,13.0318656 L15.5490192,13.0318656 C14.5294032,13.0318656 13.6171152,13.8904896 13.6171152,14.9637696 L13.6171152,16.0907136 C13.6171152,17.1103296 14.4757392,18.0226176 15.5490192,18.0226176 L23.4376272,18.0226176 C24.1889232,18.0226176 24.7798512,18.7202496 24.6182352,19.5252096 C24.4572432,20.3301696 23.6522832,24.4086336 23.5449552,24.8379456 C23.4912912,25.3209216 23.0083152,25.8575616 22.2576432,25.8575616 L15.8173392,25.8575616 C14.4757392,25.9112256 14.2074192,25.9112256 13.4024592,26.8771776 C12.5974992,27.8431296 5.5675152,36.6976896 5.5675152,36.6976896 C5.5138512,36.8050176 5.4601872,36.7513536 5.4601872,36.6440256 L5.4601872,6.5921856 C5.4601872,5.8945536 6.0504912,5.3042496 6.7481232,5.3042496 L26.1744912,5.3042496 C26.8184592,5.2505856 27.4624272,5.9482176 27.3020592,6.8068416" id="Fill-6" fill="#B5126F"></path>
                            </g>
                        </g>
                    </g>
                </g>
                <g id="Status/Ok" transform="translate(62.000000, 0.000000)">
                    <g>
                        <path d="M20.5,41 C9.17816263,41 0,31.8218374 0,20.5 C0,9.17816263 9.17816263,0 20.5,0 C31.8218374,0 41,9.17816263 41,20.5 C41,31.8218374 31.8218374,41 20.5,41 Z" id="Oval-221" fill="#FFFFFF" fill-rule="nonzero"></path>
                        <path d="M20.5,38 C30.1649831,38 38,30.1649831 38,20.5 C38,10.8350169 30.1649831,3 20.5,3 C10.8350169,3 3,10.8350169 3,20.5 C3,30.1649831 10.8350169,38 20.5,38 Z" id="Path" fill="#22C646"></path>
                        <path d="M12.54,22.0366776 C11.82,21.3202303 11.82,20.2455592 12.54,19.5291118 C13.26,18.8126645 14.34,18.8126645 15.06,19.5291118 L17.4,21.8575658 L26.94,12.3646382 C27.66,11.6481908 28.74,11.6481908 29.46,12.3646382 C30.18,13.0810855 30.18,14.1557566 29.46,14.8722039 L18.66,25.6189145 C17.94,26.3353618 16.86,26.3353618 16.14,25.6189145 L12.54,22.0366776 Z" id="Shape" fill="#FFFFFF"></path>
                    </g>
                </g>
            </g>
            <g id="Group-17" transform="translate(293.000000, 136.000000)">
                <g id="Page-1-Copy-2" transform="translate(0.000000, 8.000000)">
                    <mask id="mask-6" fill="white">
                        <use xlink:href="#path-5"></use>
                    </mask>
                    <g id="Mask">
                        <use fill="#EEEEEF" fill-rule="evenodd" xlink:href="#path-5"></use>
                        <circle stroke="#E0E4EB" stroke-width="3" cx="45.5" cy="45.5" r="47"></circle>
                    </g>
                    <g id="Page-1" mask="url(#mask-6)">
                        <g transform="translate(4.000000, 3.000000)">
                            <polygon id="Fill-1" fill="#EEEEEF" points="0 85 85 85 85 0 0 0"></polygon>
                            <polygon id="Fill-2" fill="#008373" points="26.35102 19.06822 25.96138 58.0159 36.48778 65.36466 65.04574 50.15986 64.82678 39.09558 40.97102 31.73866 44.67498 41.97334 53.0961 44.74094 27.89122 57.25566 36.54626 48.83454 36.09746 22.47978"></polygon>
                        </g>
                    </g>
                </g>
                <g id="Status/Ok" transform="translate(64.000000, 0.000000)">
                    <g>
                        <path d="M20.5,41 C9.17816263,41 0,31.8218374 0,20.5 C0,9.17816263 9.17816263,0 20.5,0 C31.8218374,0 41,9.17816263 41,20.5 C41,31.8218374 31.8218374,41 20.5,41 Z" id="Oval-221" fill="#FFFFFF" fill-rule="nonzero"></path>
                        <path d="M20.5,38 C30.1649831,38 38,30.1649831 38,20.5 C38,10.8350169 30.1649831,3 20.5,3 C10.8350169,3 3,10.8350169 3,20.5 C3,30.1649831 10.8350169,38 20.5,38 Z" id="Path" fill="#22C646"></path>
                        <path d="M12.54,22.0366776 C11.82,21.3202303 11.82,20.2455592 12.54,19.5291118 C13.26,18.8126645 14.34,18.8126645 15.06,19.5291118 L17.4,21.8575658 L26.94,12.3646382 C27.66,11.6481908 28.74,11.6481908 29.46,12.3646382 C30.18,13.0810855 30.18,14.1557566 29.46,14.8722039 L18.66,25.6189145 C17.94,26.3353618 16.86,26.3353618 16.14,25.6189145 L12.54,22.0366776 Z" id="Shape" fill="#FFFFFF"></path>
                    </g>
                </g>
            </g>
            <g id="Group-25" transform="translate(193.000000, 104.000000)">
                <g id="Page-1-Copy-3" transform="translate(0.000000, 5.000000)">
                    <mask id="mask-8" fill="white">
                        <use xlink:href="#path-7"></use>
                    </mask>
                    <use id="Mask" fill="#3C5A99" xlink:href="#path-7"></use>
                    <g id="Page-1" mask="url(#mask-8)">
                        <polygon id="Fill-1" fill="#3C5A99" points="0 75.3968254 75 75.3968254 75 0 0 0"></polygon>
                        <path d="M49.05408,75.3974286 L49.05408,49.8656508 L57.57828,49.8656508 L58.85508,39.9156825 L49.05408,39.9156825 L49.05408,33.5630476 C49.05408,30.6822857 49.84968,28.7189524 53.95908,28.7189524 L59.20008,28.7165397 L59.20008,19.8173016 C58.29348,19.6960635 55.18248,19.4252381 51.56268,19.4252381 C44.00628,19.4252381 38.83248,24.0624444 38.83248,32.5774603 L38.83248,39.9156825 L30.28608,39.9156825 L30.28608,49.8656508 L38.83248,49.8656508 L38.83248,75.3974286 L49.05408,75.3974286 Z" id="Fill-2" fill="#FFFFFF"></path>
                    </g>
                </g>
                <g id="Status/Ok" transform="translate(51.000000, 0.000000)">
                    <g>
                        <path d="M14.35,28.7 C6.42471384,28.7 0,22.2752862 0,14.35 C0,6.42471384 6.42471384,0 14.35,0 C22.2752862,0 28.7,6.42471384 28.7,14.35 C28.7,22.2752862 22.2752862,28.7 14.35,28.7 Z" id="Oval-221" fill="#FFFFFF" fill-rule="nonzero"></path>
                        <path d="M14.35,26.6 C21.1154882,26.6 26.6,21.1154882 26.6,14.35 C26.6,7.58451182 21.1154882,2.1 14.35,2.1 C7.58451182,2.1 2.1,7.58451182 2.1,14.35 C2.1,21.1154882 7.58451182,26.6 14.35,26.6 Z" id="Path" fill="#22C646"></path>
                        <path d="M8.778,15.4256743 C8.274,14.9241612 8.274,14.1718914 8.778,13.6703783 C9.282,13.1688651 10.038,13.1688651 10.542,13.6703783 L12.18,15.3002961 L18.858,8.65524671 C19.362,8.15373355 20.118,8.15373355 20.622,8.65524671 C21.126,9.15675987 21.126,9.90902961 20.622,10.4105428 L13.062,17.9332401 C12.558,18.4347533 11.802,18.4347533 11.298,17.9332401 L8.778,15.4256743 Z" id="Shape" fill="#FFFFFF"></path>
                    </g>
                </g>
            </g>
            <g id="Group-21" transform="translate(142.000000, 0.000000)">
                <g id="Page-1-Copy-9" transform="translate(0.000000, 7.000000)">
                    <mask id="mask-10" fill="white">
                        <use xlink:href="#path-9"></use>
                    </mask>
                    <use id="Mask" fill="#DC4E41" xlink:href="#path-9"></use>
                    <g id="Page-1" mask="url(#mask-10)">
                        <polygon id="Fill-1" fill="#DC4E41" points="0 76 76 76 76 0 0 0"></polygon>
                        <g id="Group-6" transform="translate(13.376000, 22.496000)" fill="#FFFFFF">
                            <path d="M0.304,15.504 C-1.11022302e-15,7.5392 6.992,0.1824 14.9568,0.0608 C19.0304,-0.304 22.9824,1.2768 26.0832,3.8912 C24.8064,5.2896 23.5296,6.6272 22.1312,7.9648 C19.3952,6.3232 16.1728,5.0464 13.0112,6.2016 C7.904,7.6 4.8032,13.6192 6.688,18.6656 C8.2688,23.8944 14.592,26.752 19.5776,24.5632 C22.1312,23.6512 23.8336,21.28 24.624,18.7264 C21.6448,18.6656 18.7264,18.7264 15.7472,18.6048 L15.7472,13.3152 L30.5216,13.3152 C30.8256,17.632 30.2176,22.2528 27.36,25.6576 C23.5296,30.5824 16.416,32.0416 10.7008,30.096 C4.6208,28.1504 0.1824,21.9488 0.304,15.504" id="Fill-2"></path>
                            <polygon id="Fill-4" points="40.128 8.8768608 44.5056 8.8768608 44.5056 13.3152608 48.944 13.3152608 48.944 17.6928608 44.5056 17.6928608 44.5056 22.1312608 40.128 22.1312608 40.128 17.6928608 35.6896 17.6928608 35.6896 13.3152608 40.128 13.3152608"></polygon>
                        </g>
                    </g>
                    <g id="Page-1" mask="url(#mask-10)">
                        <polygon id="Fill-1" fill="#FBFCFC" points="0 78 78 78 78 0 0 0"></polygon>
                        <polygon id="Fill-2" fill="#F0F0F3" points="4.5551376 -6.24e-05 77.9999376 73.4447376 77.9999376 -6.24e-05"></polygon>
                        <polygon id="Fill-3" fill="#5680BF" points="0.4992624 77.8753248 75.3168624 77.8753248 0.4992624 2.8705248"></polygon>
                        <polygon id="Fill-4" fill="#3AA952" points="0.4369248 0.1251744 0.0001248 0.5613504 0.0001248 77.7501504 77.4379008 0.1251744"></polygon>
                        <polygon id="Fill-5" fill="#F7BB18" points="75.1297248 0.1251744 0.1867008 75.1299744 0.1867008 77.5005504 4.1179008 77.5005504 77.8747008 4.4301504 77.8747008 0.1251744"></polygon>
                        <g id="Group-12" transform="translate(14.352000, 12.480000)">
                            <path d="M17.2849248,4.368 L14.4145248,7.2384 C13.9153248,6.9264 13.4785248,6.552 12.9169248,6.3024 C10.4833248,5.1792 7.7377248,5.7408 5.9281248,7.7376 C2.8081248,11.232 4.4305248,16.9104 8.9233248,18.096 C11.1073248,18.6576 13.1041248,18.2832 14.7889248,16.5984 C15.4753248,15.912 15.8497248,15.1008 16.0369248,14.1024 L10.4209248,14.1024 L10.4209248,10.1088 L20.0929248,10.1088 C20.1553248,10.608 20.2177248,11.1696 20.2177248,11.6688 C20.3425248,13.8528 19.9057248,15.912 18.7825248,17.784 C17.3473248,20.1552 15.2257248,21.528 12.5425248,22.0896 C9.2977248,22.7136 6.3649248,22.0896 3.8065248,19.968 C1.6225248,18.1584 0.3745248,15.8496 0.0625248,12.9792 C-0.2494752,9.8592 0.7489248,7.1136 2.9329248,4.8048 C4.6801248,2.9952 6.8641248,1.9968 9.4225248,1.7472 C12.4177248,1.4976 15.2881248,2.4336 17.2849248,4.368" id="Fill-6" fill="#FFFFFF"></path>
                            <path d="M60.4658496,14.8510752 L60.4658496,14.4766752 C60.4658496,6.6766752 54.1010496,0.3118752 46.3010496,0.3118752 C38.5010496,0.3118752 32.1362496,6.6142752 32.1362496,14.4766752 C31.6370496,20.4046752 36.4418496,26.1454752 36.4418496,26.1454752 C44.6162496,36.5662752 43.7420256,39.6238752 45.3650496,44.1166752 C46.1762496,46.4260992 46.8002496,45.5518752 47.1740256,44.9278752 C47.2988256,44.6782752 47.3618496,44.1166752 47.3618496,44.1166752 C47.7980256,37.3150752 52.7282496,30.4510752 56.6588256,25.3342752 C60.5900256,20.1550752 60.4658496,14.8510752 60.4658496,14.8510752" id="Fill-8" fill="#E64535"></path>
                            <path d="M46.3009248,9.4849248 C49.0577568,9.4849248 51.2929248,11.7200928 51.2929248,14.4769248 C51.2929248,17.2337568 49.0577568,19.4689248 46.3009248,19.4689248 C43.5434688,19.4689248 41.3089248,17.2337568 41.3089248,14.4769248 C41.3089248,11.7200928 43.5434688,9.4849248 46.3009248,9.4849248" id="Fill-10" fill="#802D28"></path>
                        </g>
                    </g>
                </g>
                <g id="Status/Ok" transform="translate(52.000000, 0.000000)">
                    <g>
                        <path d="M14.35,28.7 C6.42471384,28.7 0,22.2752862 0,14.35 C0,6.42471384 6.42471384,0 14.35,0 C22.2752862,0 28.7,6.42471384 28.7,14.35 C28.7,22.2752862 22.2752862,28.7 14.35,28.7 Z" id="Oval-221" fill="#FFFFFF" fill-rule="nonzero"></path>
                        <path d="M14.35,26.6 C21.1154882,26.6 26.6,21.1154882 26.6,14.35 C26.6,7.58451182 21.1154882,2.1 14.35,2.1 C7.58451182,2.1 2.1,7.58451182 2.1,14.35 C2.1,21.1154882 7.58451182,26.6 14.35,26.6 Z" id="Path" fill="#22C646"></path>
                        <path d="M8.778,15.4256743 C8.274,14.9241612 8.274,14.1718914 8.778,13.6703783 C9.282,13.1688651 10.038,13.1688651 10.542,13.6703783 L12.18,15.3002961 L18.858,8.65524671 C19.362,8.15373355 20.118,8.15373355 20.622,8.65524671 C21.126,9.15675987 21.126,9.90902961 20.622,10.4105428 L13.062,17.9332401 C12.558,18.4347533 11.802,18.4347533 11.298,17.9332401 L8.778,15.4256743 Z" id="Shape" fill="#FFFFFF"></path>
                    </g>
                </g>
            </g>
            <g id="Group-23" transform="translate(282.000000, 9.000000)">
                <g id="Page-1-Copy" transform="translate(0.000000, 7.000000)">
                    <mask id="mask-12" fill="white">
                        <use xlink:href="#path-11"></use>
                    </mask>
                    <g id="Mask">
                        <use fill="#FFFFFF" fill-rule="evenodd" xlink:href="#path-11"></use>
                        <circle stroke="#E0E4EB" stroke-width="2" cx="38" cy="38" r="39"></circle>
                    </g>
                    <g id="Page-1" mask="url(#mask-12)">
                        <g transform="translate(5.000000, 5.000000)">
                            <polygon id="Fill-1" fill="#FFFFFF" points="0 66 66 66 66 0 0 0"></polygon>
                            <path d="M25.1640576,50.1646464 C41.1043776,50.1646464 49.8216576,36.9583104 49.8216576,25.5065184 C49.8216576,25.1316384 49.8142656,24.7583424 49.7968416,24.3866304 C51.4890816,23.1632544 52.9600896,21.6368064 54.1201056,19.8991584 C52.5672576,20.5892544 50.8961376,21.0538944 49.1431776,21.2635104 C50.9325696,20.1906144 52.3058976,18.4936224 52.9542816,16.4703264 C51.2799936,17.4624384 49.4251296,18.1842144 47.4509376,18.5733504 C45.8695776,16.8895584 43.6181856,15.8356704 41.1249696,15.8356704 C36.3397056,15.8356704 32.4583776,19.7164704 32.4583776,24.5006784 C32.4583776,25.1807424 32.5344096,25.8423264 32.6833056,26.4764544 C25.4808576,26.1142464 19.0936416,22.6658784 14.8194816,17.4223104 C14.0750016,18.7027104 13.6462656,20.1906144 13.6462656,21.7777824 C13.6462656,24.7847424 15.1758816,27.4384704 17.5027776,28.9913184 C16.0808736,28.9474944 14.7450336,28.5573024 13.5776256,27.9078624 C13.5765696,27.9442944 13.5765696,27.9796704 13.5765696,28.0182144 C13.5765696,32.2152864 16.5634656,35.7196224 20.5292736,36.5137344 C19.8006336,36.7117344 19.0345056,36.8189184 18.2440896,36.8189184 C17.6859936,36.8189184 17.1432096,36.7634784 16.6152096,36.6626304 C17.7182016,40.1057184 20.9178816,42.6110784 24.7110336,42.6813024 C21.7447296,45.0060864 18.0080736,46.3910304 13.9472256,46.3910304 C13.2486816,46.3910304 12.5580576,46.3509024 11.8801056,46.2711744 C15.7154976,48.7295424 20.2694976,50.1635904 25.1645856,50.1635904" id="Fill-2" fill="#1DA1F2"></path>
                        </g>
                    </g>
                </g>
                <g id="Status/Ok" transform="translate(51.000000, 0.000000)">
                    <g>
                        <path d="M14.35,28.7 C6.42471384,28.7 0,22.2752862 0,14.35 C0,6.42471384 6.42471384,0 14.35,0 C22.2752862,0 28.7,6.42471384 28.7,14.35 C28.7,22.2752862 22.2752862,28.7 14.35,28.7 Z" id="Oval-221" fill="#FFFFFF" fill-rule="nonzero"></path>
                        <path d="M14.35,26.6 C21.1154882,26.6 26.6,21.1154882 26.6,14.35 C26.6,7.58451182 21.1154882,2.1 14.35,2.1 C7.58451182,2.1 2.1,7.58451182 2.1,14.35 C2.1,21.1154882 7.58451182,26.6 14.35,26.6 Z" id="Path" fill="#22C646"></path>
                        <path d="M8.778,15.4256743 C8.274,14.9241612 8.274,14.1718914 8.778,13.6703783 C9.282,13.1688651 10.038,13.1688651 10.542,13.6703783 L12.18,15.3002961 L18.858,8.65524671 C19.362,8.15373355 20.118,8.15373355 20.622,8.65524671 C21.126,9.15675987 21.126,9.90902961 20.622,10.4105428 L13.062,17.9332401 C12.558,18.4347533 11.802,18.4347533 11.298,17.9332401 L8.778,15.4256743 Z" id="Shape" fill="#FFFFFF"></path>
                    </g>
                </g>
            </g>
            <g id="Group-27" transform="translate(390.000000, 43.000000)">
                <g id="Page-1" transform="translate(0.000000, 3.000000)">
                    <mask id="mask-14" fill="white">
                        <use xlink:href="#path-13"></use>
                    </mask>
                    <use id="Mask" fill="#DC4E41" xlink:href="#path-13"></use>
                    <g mask="url(#mask-14)">
                        <g transform="translate(-5.000000, 0.000000)">
                            <polygon id="Fill-1" fill="#0C4093" points="0 84 84 84 84 0 0 0"></polygon>
                            <path d="M61.0745856,24.4755168 C60.3232896,23.8398048 59.4564096,23.4352608 58.4161536,23.6664288 C57.2025216,23.9553888 56.4512256,24.7644768 56.1622656,25.9781088 C55.9310976,26.9605728 56.3356416,27.8274528 56.9720256,28.5209568 C58.3583616,27.1339488 59.7453696,25.8047328 61.0745856,24.4755168 M38.4779136,47.0721888 C39.8071296,45.6851808 41.1363456,44.3559648 42.4655616,42.9689568 C41.3097216,41.8709088 39.5759616,41.7553248 38.3045376,43.1423328 C37.2642816,44.2981728 37.3220736,46.1475168 38.4779136,47.0721888 M45.1239936,31.2371808 C45.6441216,31.6995168 46.2220416,32.1618528 46.8577536,32.6819808 L46.8577536,32.2196448 C46.6265856,29.9657568 47.3200896,28.1164128 49.1116416,26.6716128 C49.4006016,26.4404448 49.5739776,26.4404448 49.8629376,26.7294048 C50.5564416,27.5962848 51.2499456,28.4053728 52.0012416,29.2144608 C52.0590336,29.3300448 52.1746176,29.3878368 52.3479936,29.5612128 C52.3479936,29.3878368 52.3479936,29.3300448 52.2902016,29.2144608 C51.1921536,25.9203168 52.0590336,23.2040928 54.5440896,20.8924128 C55.6999296,19.8521568 56.9720256,19.0430688 58.5895296,18.8119008 C59.9765376,18.6385248 61.3057536,18.9274848 62.5771776,19.5054048 C63.9641856,20.1989088 65.1778176,21.1813728 66.2758656,22.2794208 C66.5648256,22.5683808 66.8537856,22.7995488 67.2005376,23.0885088 C64.6576896,25.6313568 62.2304256,28.1164128 59.7453696,30.6592608 C60.4966656,31.2949728 61.3057536,31.4683488 62.2304256,31.2949728 C63.2128896,31.1215968 63.9641856,30.6014688 64.6576896,29.9657568 C65.7557376,28.9255008 66.6226176,27.7118688 67.3161216,26.3826528 C67.3739136,26.2670688 67.4317056,26.2092768 67.4894976,26.0359008 C67.8940416,26.2670688 68.2407936,26.4404448 68.5875456,26.6138208 C69.2810496,27.0183648 69.9745536,27.3651168 70.6680576,27.7696608 C70.9570176,27.9430368 71.0148096,28.0586208 70.8414336,28.3475808 C70.3213056,29.2722528 69.8589696,30.1969248 69.2810496,31.0638048 C68.3563776,32.3930208 67.2005376,33.5488608 65.8713216,34.5313248 C62.8661376,36.6696288 59.5142016,36.6696288 56.5090176,34.5313248 C55.0064256,33.4910688 53.7927936,32.2196448 52.9259136,30.6014688 C52.8681216,30.4858848 52.8103296,30.4280928 52.7525376,30.3703008 C50.9609856,31.0060128 50.0363136,32.9131488 50.6726976,34.6469088 C51.0765696,35.8605408 51.8856576,36.7852128 52.7525376,37.7098848 C54.1973376,39.2124768 55.6999296,40.6572768 57.2025216,42.1598688 C57.3181056,42.2754528 57.4336896,42.3332448 57.4914816,42.3910368 L53.3882496,46.4942688 C53.3304576,46.4364768 53.2148736,46.3786848 53.1570816,46.2631008 C51.7700736,44.8760928 50.3252736,43.4312928 48.9382656,42.0442848 C48.7648896,41.8709088 48.6493056,41.8131168 48.4181376,42.0442848 C46.0486656,44.4137568 43.7369856,46.7254368 41.3675136,49.0949088 C41.3097216,49.1527008 41.2519296,49.2104928 41.1941376,49.3260768 C41.8876416,49.9039968 42.6967296,50.1351648 43.5636096,50.0195808 C44.7772416,49.8462048 45.7597056,49.1527008 46.5687936,48.2280288 C47.2622976,47.4189408 47.8402176,46.5527328 48.4181376,45.7429728 C48.4759296,45.6280608 48.5337216,45.5118048 48.6493056,45.3962208 C49.8629376,46.0897248 51.0187776,46.7254368 52.2902016,47.4189408 C51.9434496,48.0546528 51.5966976,48.6903648 51.1921536,49.2104928 C50.0941056,50.7708768 48.8226816,52.2156768 47.2045056,53.2559328 C44.0837376,55.4520288 40.6162176,55.3942368 37.6688256,53.2559328 C37.4954496,53.1403488 37.3798656,53.0247648 37.1486976,52.9098528 C38.8246656,54.5851488 40.5006336,56.2033248 42.0610176,57.8215008 C40.6162176,59.2663008 39.2870016,60.5955168 37.8999936,61.9825248 C37.8422016,61.9254048 37.7266176,61.8091488 37.6110336,61.6935648 C35.4727296,59.5552608 33.3344256,57.4176288 31.1961216,55.2786528 C30.8493696,54.9319008 30.4448256,54.5851488 29.9824896,54.3539808 C29.3467776,53.9494368 28.6532736,54.0072288 28.0175616,54.5273568 C27.3818496,55.0474848 26.9195136,55.6831968 27.1506816,56.6078688 C27.3818496,57.5325408 27.9597696,58.2260448 28.5954816,58.8617568 C30.5026176,60.8266848 32.4675456,62.7338208 34.3746816,64.6416288 C34.4902656,64.7565408 34.6636416,64.8143328 34.7792256,64.9299168 C34.7792256,64.9877088 34.7214336,65.0455008 34.7214336,65.0455008 L34.3746816,65.0455008 L26.9773056,65.0455008 C26.7461376,65.0455008 26.5149696,64.9299168 26.3415936,64.7565408 C22.0071936,60.4221408 17.6727936,56.0877408 13.3383936,51.7533408 C13.2228096,51.6377568 13.1650176,51.5799648 13.1072256,51.4643808 C14.4364416,50.1351648 15.7656576,48.8059488 17.1526656,47.3611488 C19.4065536,49.6728288 21.7182336,51.9851808 24.0877056,54.3539808 C24.1454976,54.1806048 24.2032896,54.1228128 24.1454976,54.0650208 C23.9721216,51.8689248 25.0701696,50.3085408 26.6305536,48.9793248 C27.6130176,48.1702368 28.7688576,47.6501088 30.0980736,47.8234848 C31.0227456,47.8812768 31.8896256,48.2280288 32.6409216,48.8059488 C33.3344256,49.3260768 33.9701376,49.9039968 34.6058496,50.4241248 C34.6636416,50.4819168 34.7214336,50.5397088 34.8948096,50.5397088 C34.8370176,50.4241248 34.7792256,50.3085408 34.6636416,50.1936288 C33.8545536,49.0371168 33.2766336,47.7656928 33.0454656,46.3786848 C32.8142976,44.8760928 33.1032576,43.4890848 33.7967616,42.2176608 C34.7214336,40.4839008 36.1084416,39.1546848 37.7844096,38.1722208 C39.8649216,37.0163808 41.9454336,37.1319648 44.0259456,38.2300128 C44.7194496,38.5767648 45.4129536,39.0391008 45.9330816,39.3858528 C44.4882816,37.9410528 42.8701056,36.3228768 41.3675136,34.8202848 C42.6967296,33.6066528 43.9103616,32.4508128 45.1239936,31.2371808" id="Fill-2" fill="#FFFFFF"></path>
                        </g>
                    </g>
                </g>
                <g id="Status/Ok" transform="translate(53.000000, 0.000000)">
                    <g>
                        <path d="M14.35,28.7 C6.42471384,28.7 0,22.2752862 0,14.35 C0,6.42471384 6.42471384,0 14.35,0 C22.2752862,0 28.7,6.42471384 28.7,14.35 C28.7,22.2752862 22.2752862,28.7 14.35,28.7 Z" id="Oval-221" fill="#FFFFFF" fill-rule="nonzero"></path>
                        <path d="M14.35,26.6 C21.1154882,26.6 26.6,21.1154882 26.6,14.35 C26.6,7.58451182 21.1154882,2.1 14.35,2.1 C7.58451182,2.1 2.1,7.58451182 2.1,14.35 C2.1,21.1154882 7.58451182,26.6 14.35,26.6 Z" id="Path" fill="#22C646"></path>
                        <path d="M8.778,15.4256743 C8.274,14.9241612 8.274,14.1718914 8.778,13.6703783 C9.282,13.1688651 10.038,13.1688651 10.542,13.6703783 L12.18,15.3002961 L18.858,8.65524671 C19.362,8.15373355 20.118,8.15373355 20.622,8.65524671 C21.126,9.15675987 21.126,9.90902961 20.622,10.4105428 L13.062,17.9332401 C12.558,18.4347533 11.802,18.4347533 11.298,17.9332401 L8.778,15.4256743 Z" id="Shape" fill="#FFFFFF"></path>
                    </g>
                </g>
            </g>
            <g id="Group-19" transform="translate(491.000000, 8.000000)">
                <g id="Page-1-Copy-5" transform="translate(0.000000, 8.000000)">
                    <mask id="mask-16" fill="white">
                        <use xlink:href="#path-15"></use>
                    </mask>
                    <g id="Mask">
                        <use fill="#FFFFFF" fill-rule="evenodd" xlink:href="#path-15"></use>
                        <circle stroke="#E0E4EB" stroke-width="2" cx="38" cy="38" r="39"></circle>
                    </g>
                    <g id="Page-1" mask="url(#mask-16)">
                        <g transform="translate(0.000000, -5.000000)">
                            <polygon id="Fill-1" fill="#FFFFFF" points="0 78 78 78 78 0 0 0"></polygon>
                            <g id="Group-24" stroke-width="1" fill="none" transform="translate(8.112000, 24.960000)">
                                <path d="M54.1783008,9.424896 L54.2856288,9.424896 C54.8759328,9.263904 55.5192768,9.049248 56.1102048,8.888256 C56.1638688,8.888256 56.1638688,8.834592 56.1638688,8.834592 C56.1102048,8.6736 56.1638688,8.512608 56.0028768,8.351616 C55.7345568,8.13696 55.4656128,7.922304 55.1979168,7.707648 C54.9832608,7.546656 54.7679808,7.385664 54.5539488,7.171008 C54.4466208,7.922304 54.3392928,8.6736 54.1783008,9.424896 M61.7449248,8.083296 C61.7449248,8.244288 61.6912608,8.351616 61.6912608,8.512608 C61.5839328,8.94192 61.4223168,9.263904 61.1009568,9.585888 C60.5636928,10.122528 59.9203488,10.55184 59.1153888,10.712832 C58.5787488,10.82016 58.0414848,10.766496 57.5591328,10.498176 C57.5054688,10.444512 57.3981408,10.444512 57.3444768,10.498176 C56.4315648,10.712832 55.5192768,10.981152 54.6606528,11.195808 C54.4466208,11.249472 54.1783008,11.195808 53.8556928,11.195808 C53.8020288,11.303136 53.8020288,11.464128 53.7489888,11.678784 C53.6953248,11.839776 53.6953248,12.000768 53.6416608,12.108096 C53.5343328,12.43008 53.6416608,12.644736 53.7489888,12.913056 C53.9636448,12.805728 54.1783008,12.6984 54.3929568,12.591072 C54.8222688,12.376416 55.2515808,12.16176 55.6808928,11.89344 C56.0028768,11.732448 56.2711968,11.678784 56.5931808,11.89344 C56.9151648,12.108096 57.0761568,12.483744 57.0224928,12.859392 C56.9688288,13.127712 56.8078368,13.288704 56.5931808,13.396032 C56.1102048,13.664352 55.5729408,13.932672 55.0905888,14.200992 L53.8020288,14.84496 C53.7489888,14.898624 53.6953248,14.898624 53.6416608,14.952288 C53.2123488,15.810912 52.5683808,16.347552 51.6560928,16.562208 C51.1731168,16.669536 50.6364768,16.7232 50.0998368,16.615872 C49.1338848,16.45488 48.4899168,15.810912 48.3289248,14.791296 C48.3289248,14.737632 48.2752608,14.683968 48.3289248,14.630304 C48.3289248,14.30832 48.2215968,14.093664 48.0599808,13.879008 C47.4703008,13.020384 46.8799968,12.16176 46.2890688,11.303136 C45.9140448,10.766496 46.2890688,9.961536 46.9336608,9.907872 C47.2013568,9.907872 47.3629728,9.961536 47.5239648,10.176192 C47.8989888,10.659168 48.2752608,11.195808 48.7045728,11.678784 C48.8112768,11.786112 48.8649408,11.89344 48.9728928,12.000768 C48.9728928,11.947104 48.9186048,11.89344 48.9186048,11.839776 C48.4899168,10.659168 48.0063168,9.47856 47.5776288,8.244288 C47.3629728,7.653984 47.7922848,7.010016 48.3825888,7.010016 C48.7045728,7.010016 48.9728928,7.171008 49.0802208,7.492992 C49.5095328,8.566272 49.8851808,9.639552 50.3144928,10.712832 C50.3144928,10.766496 50.3681568,10.82016 50.4211968,10.82016 C50.4211968,10.55184 50.3681568,10.337184 50.3681568,10.068864 C50.2608288,8.780928 50.2071648,7.546656 50.0998368,6.25872 C50.0461728,5.829408 50.4211968,5.346432 50.7974688,5.292768 C51.2798208,5.239104 51.7097568,5.614752 51.7634208,6.097728 C51.8707488,7.010016 51.9244128,7.922304 51.9780768,8.888256 C52.0317408,9.424896 52.0854048,9.961536 52.0854048,10.444512 C52.0854048,10.498176 52.0854048,10.55184 52.1384448,10.605504 C52.2457728,10.176192 52.3537248,9.693216 52.4073888,9.263904 C52.5683808,8.458944 52.7293728,7.653984 52.8903648,6.902688 C52.9434048,6.79536 52.9970688,6.634368 53.0507328,6.52704 C53.1586848,6.312384 53.3196768,6.151392 53.5879968,6.097728 L53.4806688,5.9904 C53.1043968,5.668416 52.6757088,5.346432 52.3000608,4.970784 C51.9244128,4.6488 51.9244128,4.058496 52.2457728,3.736512 C52.7293728,3.253536 52.9970688,3.253536 53.4806688,3.682848 C54.3392928,4.38048 55.1979168,5.131776 56.0565408,5.883072 C56.1102048,5.936736 56.1102048,5.936736 56.2175328,5.9904 C56.2175328,5.936736 56.1638688,5.883072 56.1638688,5.883072 C55.4125728,4.702464 54.6606528,3.521856 53.9636448,2.287584 C53.8020288,2.019264 53.8020288,1.69728 53.8556928,1.42896 C53.9636448,1.053312 54.2856288,0.945984 54.6069888,0.945984 C54.9295968,0.89232 55.1442528,1.053312 55.3052448,1.321632 C56.0565408,2.555904 56.8615008,3.790176 57.6664608,5.024448 C57.6664608,5.078112 57.7201248,5.078112 57.7737888,5.131776 C57.7737888,5.078112 57.7201248,5.024448 57.7201248,4.970784 C57.3981408,3.897504 57.1291968,2.824224 56.8078368,1.69728 C56.6468448,1.16064 56.8615008,0.731328 57.3444768,0.516672 L57.6664608,0.516672 L57.7201248,0.516672 C58.0951488,0.624 58.3104288,0.838656 58.4177568,1.16064 C58.6860768,2.072928 58.9537728,3.03888 59.2227168,3.951168 C59.3300448,4.273152 59.3837088,4.595136 59.4910368,4.91712 C59.5447008,4.863456 59.5447008,4.809792 59.5447008,4.756128 C59.5447008,4.058496 59.5447008,3.360864 59.5983648,2.663232 C59.5983648,2.23392 59.8666848,1.9656 60.2423328,1.911936 L60.6716448,1.911936 C61.0472928,1.9656 61.2082848,2.23392 61.2082848,2.609568 C61.2082848,3.736512 61.2619488,4.809792 61.2619488,5.936736 C61.2619488,6.151392 61.2619488,6.366048 61.3686528,6.580704 C61.4223168,6.688032 61.4759808,6.849024 61.5302688,6.956352 C61.5839328,7.224672 61.6375968,7.439328 61.6912608,7.707648 C61.7449248,7.86864 61.7449248,7.975968 61.7449248,8.083296" id="Fill-2" fill="#E31E0C"></path>
                                <path d="M36.737376,23.8606992 C36.79104,24.0216912 36.79104,24.2363472 36.844704,24.3967152 C37.220352,25.3632912 38.347296,25.6316112 39.044928,24.9339792 C39.635232,24.3430512 39.635232,23.3240592 39.044928,22.7331312 C38.508288,22.1971152 37.649664,22.1971152 37.113024,22.7867952 C36.898368,23.1094032 36.79104,23.4844272 36.737376,23.8606992 M37.649664,27.5098512 C37.32768,27.4025232 36.952032,27.2951952 36.630048,27.1342032 C35.556768,26.5975632 34.966464,25.6852752 34.751808,24.5040432 C34.537152,23.2167312 34.9128,22.0897872 35.825088,21.1232112 C37.220352,19.7822352 39.366912,19.8358992 40.601184,21.2848272 C42.103776,22.9484112 41.835456,25.6316112 40.064544,26.9189232 C39.688272,27.1878672 39.20592,27.4025232 38.722944,27.5098512 C38.66928,27.5098512 38.66928,27.5098512 38.615616,27.5635152 C38.347296,27.5098512 37.971648,27.5098512 37.649664,27.5098512" id="Fill-4" fill="#000001"></path>
                                <path d="M0.0310752,21.7674912 C0.0847392,21.6601632 0.0847392,21.6064992 0.1384032,21.4991712 C0.2993952,21.1778112 0.5140512,21.0161952 0.8896992,21.0161952 L1.4800032,21.0161952 L1.4800032,20.1575712 C1.4800032,19.5142272 1.8019872,19.1916192 2.4459552,19.1379552 C2.6069472,19.1379552 2.7142752,19.1379552 2.8752672,19.1916192 C3.3045792,19.2989472 3.5728992,19.6215552 3.5728992,20.0502432 L3.5728992,21.0161952 L3.7338912,21.0161952 L5.5584672,21.0161952 C6.1487712,21.0161952 6.5244192,21.3918432 6.5780832,21.9821472 C6.5780832,22.6261152 6.1487712,23.1090912 5.5584672,23.1090912 L3.7875552,23.1090912 L3.5728992,23.1090912 L3.5728992,23.2700832 L3.5728992,24.7726752 C3.5728992,24.9873312 3.6802272,25.0946592 3.8948832,25.0946592 L6.4707552,25.0946592 C6.7927392,25.0946592 7.1147232,25.2019872 7.3293792,25.4709312 C7.8660192,26.1679392 7.4367072,27.1881792 6.6317472,27.3485472 L6.4170912,27.3485472 L4.0022112,27.3485472 C3.5728992,27.3485472 3.1972512,27.2412192 2.8216032,27.0265632 C2.0703072,26.5972512 1.6409952,26.0069472 1.4800032,25.2019872 L1.4800032,24.9336672 L1.4800032,23.0554272 L1.1043552,23.0554272 C0.5677152,23.1090912 0.1384032,22.6797792 0.0847392,22.2504672 L0.0847392,22.1968032 C0.0310752,22.0364352 0.0310752,21.8748192 0.0310752,21.7674912" id="Fill-6" fill="#000001"></path>
                                <path d="M48.2753232,21.2848896 C48.5973072,20.9086176 49.0266192,20.5872576 49.5626352,20.4262656 C51.3335472,19.7822976 53.8557552,20.6409216 54.2856912,23.1631296 C54.3393552,23.4308256 54.3930192,23.7534336 54.3930192,24.0754176 L54.3930192,26.3829696 C54.3930192,26.8116576 54.1246992,27.1879296 53.7484272,27.3489216 C53.3734032,27.5099136 52.8904272,27.4025856 52.6221072,27.0806016 C52.4074512,26.8653216 52.3001232,26.5976256 52.3001232,26.3293056 L52.3001232,24.0754176 C52.3001232,23.5381536 52.0848432,23.1631296 51.7098192,22.8405216 C51.1195152,22.2508416 50.2072272,22.3045056 49.6162992,23.0021376 C49.3486032,23.3241216 49.1876112,23.6997696 49.1876112,24.1290816 L49.1876112,26.3829696 C49.1876112,26.8116576 48.9192912,27.2415936 48.5436432,27.3489216 C48.1143312,27.5099136 47.6313552,27.3489216 47.3093712,27.0263136 C47.1477552,26.8116576 47.0404272,26.5976256 47.0404272,26.3293056 L47.0404272,23.9144256 C47.0404272,23.3777856 46.5580752,22.7331936 46.0750992,22.5191616 C45.5378352,22.3045056 44.9481552,22.4118336 44.5718832,22.8405216 C44.3578512,23.0558016 44.1968592,23.3241216 44.0895312,23.6454816 C44.0895312,23.6997696 44.0358672,23.8070976 44.0358672,23.8607616 L44.0358672,26.3829696 C44.0358672,26.8116576 43.7132592,27.2415936 43.2845712,27.4025856 C42.8546352,27.5099136 42.4259472,27.4025856 42.2112912,26.9726496 C42.0496752,26.7579936 41.9960112,26.4902976 41.9960112,26.2219776 L41.9960112,23.8607616 C41.9960112,22.4654976 42.9619632,21.0159456 44.1968592,20.5335936 C45.3238032,20.1036576 46.3964592,20.1573216 47.4703632,20.7482496 C47.7923472,20.8555776 48.0063792,21.1232736 48.2753232,21.2848896" id="Fill-8" fill="#000001"></path>
                                <path d="M20.9064336,21.0697344 C21.2820816,20.6410464 21.7650576,20.3727264 22.3016976,20.2111104 C24.0189456,19.6214304 26.4874896,20.4800544 26.9704656,23.0022624 C27.0241296,23.2699584 27.0241296,23.4846144 27.0241296,23.7535584 L27.0241296,26.1678144 C27.0241296,26.5971264 26.7558096,26.9727744 26.3801616,27.0807264 C26.0045136,27.2417184 25.5215376,27.1343904 25.2532176,26.8117824 C25.0385616,26.5971264 24.9312336,26.3294304 24.9312336,26.0068224 L24.9312336,23.6998944 C24.9312336,23.4846144 24.8775696,23.2699584 24.7702416,23.0559264 C24.5555856,22.6796544 24.2872656,22.3576704 23.8579536,22.1973024 C23.2676496,21.9820224 22.6773456,22.1436384 22.3016976,22.6796544 C22.1943696,22.8406464 22.0870416,23.0022624 21.9797136,23.2162944 C21.9260496,23.3236224 21.8723856,23.4846144 21.8723856,23.5919424 L21.8723856,26.0604864 C21.8723856,26.5434624 21.6040656,26.9191104 21.1747536,27.0807264 C20.6917776,27.2417184 20.2088016,27.0807264 19.9404816,26.7044544 C19.8331536,26.4904224 19.7258256,26.3294304 19.7258256,26.0604864 L19.7258256,23.6456064 C19.7258256,23.1095904 19.2965136,22.4649984 18.7598736,22.2509664 C18.2232336,22.0363104 17.6329296,22.1973024 17.2036176,22.6259904 C16.9889616,22.8406464 16.8816336,23.1095904 16.7206416,23.3772864 C16.6669776,23.4309504 16.6669776,23.5382784 16.6669776,23.5919424 L16.6669776,26.1141504 C16.6669776,26.5434624 16.2913296,26.9727744 15.9156816,27.1343904 C15.4863696,27.2417184 15.0570576,27.0807264 14.7887376,26.7044544 C14.6277456,26.4904224 14.5740816,26.2221024 14.5740816,25.9531584 L14.5740816,23.5919424 C14.5740816,22.1973024 15.5400336,20.7477504 16.7743056,20.2647744 C17.9012496,19.8354624 18.9745296,19.8891264 20.0478096,20.4800544 C20.4234576,20.6410464 20.6381136,20.9087424 20.9064336,21.0697344" id="Fill-10" fill="#000001"></path>
                                <path d="M9.4224624,23.699832 L9.4224624,23.914488 C9.4224624,24.021816 9.4761264,24.12852 9.4761264,24.235848 C9.8517744,25.255464 11.0323824,25.524408 11.7300144,24.773112 C12.3203184,24.182184 12.2666544,23.216856 11.6763504,22.625928 C11.1397104,22.089912 10.3884144,22.089912 9.8517744,22.625928 C9.5834544,22.840584 9.4224624,23.216856 9.4224624,23.699832 M7.3295664,23.430888 C7.3295664,22.464936 7.8125424,21.445944 8.7784944,20.694648 C10.0127664,19.675032 11.7300144,19.78236 12.9642864,20.855016 C14.5205424,22.19724 14.6815344,24.719448 13.2862704,26.22204 C11.6763504,28.046616 8.8321584,27.61668 7.7588784,25.41708 C7.4905584,24.88044 7.3295664,24.289512 7.3295664,23.430888" id="Fill-12" fill="#000001"></path>
                                <path d="M30.9416016,23.2166064 L30.9416016,24.1288944 L30.9416016,24.9338544 C30.9416016,25.0948464 31.0489296,25.2021744 31.2099216,25.2558384 L31.3709136,25.2558384 L33.8400816,25.2558384 C34.5370896,25.2558384 34.9127376,25.6851504 34.9127376,26.3291184 C34.9127376,27.0261264 34.4297616,27.5097264 33.7857936,27.5097264 L31.3709136,27.5097264 C30.9416016,27.5097264 30.5659536,27.4023984 30.1903056,27.1877424 C29.3316816,26.7047664 28.7950416,25.9534704 28.8487056,24.8801904 L28.8487056,23.3775984 L28.8487056,23.1629424 L28.4730576,23.1629424 C27.8827536,23.1629424 27.5071056,22.7872944 27.4534416,22.1969904 L27.4534416,21.8213424 C27.5071056,21.3383664 27.8827536,21.0163824 28.3657296,21.0163824 L28.8487056,21.0163824 L28.8487056,20.1577584 L28.8487056,19.8357744 C28.9560336,19.4595024 29.1706896,19.1918064 29.6000016,19.1381424 C29.8146576,19.1381424 30.0293136,19.1381424 30.2439696,19.1918064 C30.6732816,19.2991344 30.8879376,19.6211184 30.8879376,20.0504304 L30.8879376,21.0163824 L31.0489296,21.0163824 L32.8735056,21.0163824 C33.5174736,21.0163824 33.8931216,21.3920304 33.8931216,22.0359984 C33.8931216,22.6799664 33.4638096,23.1092784 32.8735056,23.1092784 C32.2295376,23.2166064 31.5855696,23.2166064 30.9416016,23.2166064" id="Fill-14" fill="#000001"></path>
                                <path d="M53.6950752,19.889376 C53.6950752,20.157696 53.7487392,20.372352 53.9097312,20.587008 C54.2317152,21.069984 54.8763072,21.123648 55.2513312,20.640672 C55.5196512,20.265024 55.5733152,19.835712 55.4123232,19.4064 C55.1440032,18.816096 54.3927072,18.708768 53.9640192,19.191744 C53.7487392,19.4064 53.6950752,19.621056 53.6950752,19.889376 M53.4267552,19.94304 C53.4267552,19.4064 53.6414112,19.030752 54.0713472,18.816096 C54.4463712,18.60144 54.8763072,18.655104 55.1976672,18.86976 C55.6812672,19.191744 55.7879712,19.67472 55.6812672,20.21136 C55.5733152,20.694336 55.3049952,21.01632 54.8226432,21.123648 C54.2317152,21.28464 53.6414112,20.855328 53.4804192,20.21136 C53.4267552,20.104032 53.4267552,19.996704 53.4267552,19.94304" id="Fill-16" fill="#000000"></path>
                                <path d="M54.768168,19.9966416 C55.037112,19.8893136 55.090776,19.8356496 55.090776,19.6209936 C55.090776,19.4063376 54.983448,19.2990096 54.768168,19.2990096 L54.124824,19.2990096 L54.124824,20.5869456 L54.33948,20.5869456 L54.33948,20.1039696 C54.499848,20.0503056 54.553512,20.1039696 54.607176,20.2112976 C54.66084,20.2649616 54.714504,20.3729136 54.768168,20.4259536 C54.822456,20.5869456 54.929784,20.5869456 55.090776,20.5332816 C54.983448,20.3729136 54.87612,20.2112976 54.768168,19.9966416 M53.694888,19.8893136 C53.694888,19.6209936 53.748552,19.4063376 53.909544,19.1916816 C54.33948,18.7093296 55.090776,18.8160336 55.358472,19.4063376 C55.519464,19.8356496 55.4658,20.2649616 55.19748,20.6406096 C54.822456,21.1235856 54.178488,21.1235856 53.85588,20.5869456 C53.748552,20.3729136 53.694888,20.1576336 53.694888,19.8893136" id="Fill-18" fill="#FFFFFF"></path>
                                <path d="M54.339168,19.889376 L54.714816,19.889376 C54.822144,19.889376 54.875808,19.835712 54.875808,19.728384 C54.875808,19.621056 54.875808,19.567392 54.767856,19.513728 L54.392832,19.513728 C54.339168,19.621056 54.339168,19.728384 54.339168,19.889376 M54.767856,19.996704 C54.875808,20.157696 54.983136,20.372352 55.090464,20.533344 C54.929472,20.587008 54.822144,20.533344 54.767856,20.426016 C54.714816,20.372352 54.661152,20.265024 54.607488,20.21136 C54.553824,20.104032 54.446496,20.050368 54.339168,20.104032 L54.339168,20.587008 L54.124512,20.587008 L54.124512,19.299072 L54.767856,19.299072 C54.983136,19.299072 55.0368,19.4064 55.090464,19.621056 C55.090464,19.835712 55.0368,19.889376 54.767856,19.996704" id="Fill-20" fill="#000000"></path>
                                <path d="M54.339168,19.889376 L54.339168,19.513728 L54.714816,19.513728 C54.822144,19.513728 54.822144,19.621056 54.822144,19.728384 C54.822144,19.835712 54.767856,19.889376 54.661152,19.889376 L54.339168,19.889376 Z" id="Fill-22" fill="#FFFFFF"></path>
                            </g>
                        </g>
                    </g>
                </g>
                <g id="Status/Ok" transform="translate(48.000000, 0.000000)">
                    <g>
                        <path d="M14.35,28.7 C6.42471384,28.7 0,22.2752862 0,14.35 C0,6.42471384 6.42471384,0 14.35,0 C22.2752862,0 28.7,6.42471384 28.7,14.35 C28.7,22.2752862 22.2752862,28.7 14.35,28.7 Z" id="Oval-221" fill="#FFFFFF" fill-rule="nonzero"></path>
                        <path d="M14.35,26.6 C21.1154882,26.6 26.6,21.1154882 26.6,14.35 C26.6,7.58451182 21.1154882,2.1 14.35,2.1 C7.58451182,2.1 2.1,7.58451182 2.1,14.35 C2.1,21.1154882 7.58451182,26.6 14.35,26.6 Z" id="Path" fill="#22C646"></path>
                        <path d="M8.778,15.4256743 C8.274,14.9241612 8.274,14.1718914 8.778,13.6703783 C9.282,13.1688651 10.038,13.1688651 10.542,13.6703783 L12.18,15.3002961 L18.858,8.65524671 C19.362,8.15373355 20.118,8.15373355 20.622,8.65524671 C21.126,9.15675987 21.126,9.90902961 20.622,10.4105428 L13.062,17.9332401 C12.558,18.4347533 11.802,18.4347533 11.298,17.9332401 L8.778,15.4256743 Z" id="Shape" fill="#FFFFFF"></path>
                    </g>
                </g>
            </g>
            <g id="Group-18" transform="translate(587.000000, 83.000000)">
                <g id="Page-1-Copy-10" transform="translate(0.000000, 6.000000)">
                    <mask id="mask-18" fill="white">
                        <use xlink:href="#path-17"></use>
                    </mask>
                    <use id="Mask" fill="#DC4E41" xlink:href="#path-17"></use>
                    <g id="Page-1" mask="url(#mask-18)">
                        <polygon id="Fill-1" fill="#DC4E41" points="0 76 76 76 76 0 0 0"></polygon>
                        <g id="Group-6" transform="translate(13.376000, 22.496000)" fill="#FFFFFF">
                            <path d="M0.304,15.504 C-1.11022302e-15,7.5392 6.992,0.1824 14.9568,0.0608 C19.0304,-0.304 22.9824,1.2768 26.0832,3.8912 C24.8064,5.2896 23.5296,6.6272 22.1312,7.9648 C19.3952,6.3232 16.1728,5.0464 13.0112,6.2016 C7.904,7.6 4.8032,13.6192 6.688,18.6656 C8.2688,23.8944 14.592,26.752 19.5776,24.5632 C22.1312,23.6512 23.8336,21.28 24.624,18.7264 C21.6448,18.6656 18.7264,18.7264 15.7472,18.6048 L15.7472,13.3152 L30.5216,13.3152 C30.8256,17.632 30.2176,22.2528 27.36,25.6576 C23.5296,30.5824 16.416,32.0416 10.7008,30.096 C4.6208,28.1504 0.1824,21.9488 0.304,15.504" id="Fill-2"></path>
                            <polygon id="Fill-4" points="40.128 8.8768608 44.5056 8.8768608 44.5056 13.3152608 48.944 13.3152608 48.944 17.6928608 44.5056 17.6928608 44.5056 22.1312608 40.128 22.1312608 40.128 17.6928608 35.6896 17.6928608 35.6896 13.3152608 40.128 13.3152608"></polygon>
                        </g>
                    </g>
                    <g id="Page-1" mask="url(#mask-18)">
                        <g transform="translate(-3.000000, 0.000000)">
                            <polygon id="Fill-1" fill="#000001" points="0 82 82 82 82 0 0 0"></polygon>
                            <polygon id="Fill-2" fill="#FFD300" points="18.612032 58.621472 63.34992 58.621472 63.34992 53.938288 18.612032 53.938288"></polygon>
                            <path d="M58.1597792,33.9111328 C58.1033632,30.8646688 56.7493792,27.5361248 52.9130912,27.5361248 C49.0761472,27.5361248 47.6664032,30.8646688 47.6664032,33.9111328 C47.7228192,36.9575968 49.0761472,40.2861408 52.9130912,40.2861408 C56.7493792,40.2861408 58.1033632,36.9575968 58.1597792,33.9111328 Z M42.7017952,23.3613408 L47.7792352,23.3613408 L47.7792352,25.1666528 L47.8920672,25.1666528 C49.6409632,23.6434208 51.8411872,22.8535968 54.1542432,22.8535968 C59.4573472,22.8535968 63.5192992,27.8182048 63.5192992,33.9111328 C63.5192992,39.4963168 60.2471712,44.9686688 53.5900832,44.9686688 C51.4462752,45.0815008 49.3588832,44.3480928 47.8356512,42.8812768 L47.8356512,51.2308448 L42.7575552,51.2308448 L42.7575552,23.3613408 L42.7017952,23.3613408 Z M33.2239072,46.3226528 C31.8699232,50.1589408 30.0081952,51.4571648 26.3975712,51.4571648 C25.1564192,51.4571648 23.9152672,51.2308448 22.7869472,50.7795168 L22.7869472,46.2662368 C23.8024352,46.6611488 24.8743392,46.8868128 26.0026592,46.9432288 C27.6387232,46.9432288 28.3157152,46.0969888 28.3157152,45.0815008 C28.2592992,44.5173408 28.0900512,43.8967648 27.8079712,43.3890208 C27.4694752,42.5427808 20.0225632,23.4741728 20.0225632,23.4741728 L25.5513312,23.4741728 L30.9672672,39.4963168 L31.0236832,39.4963168 L35.8190432,23.4741728 L41.1221472,23.4741728 L33.2239072,46.3226528 Z" id="Fill-3" fill="#FFFFFF"></path>
                        </g>
                    </g>
                </g>
                <g id="Status/Ok" transform="translate(52.000000, 0.000000)">
                    <g>
                        <path d="M14.35,28.7 C6.42471384,28.7 0,22.2752862 0,14.35 C0,6.42471384 6.42471384,0 14.35,0 C22.2752862,0 28.7,6.42471384 28.7,14.35 C28.7,22.2752862 22.2752862,28.7 14.35,28.7 Z" id="Oval-221" fill="#FFFFFF" fill-rule="nonzero"></path>
                        <path d="M14.35,26.6 C21.1154882,26.6 26.6,21.1154882 26.6,14.35 C26.6,7.58451182 21.1154882,2.1 14.35,2.1 C7.58451182,2.1 2.1,7.58451182 2.1,14.35 C2.1,21.1154882 7.58451182,26.6 14.35,26.6 Z" id="Path" fill="#22C646"></path>
                        <path d="M8.778,15.4256743 C8.274,14.9241612 8.274,14.1718914 8.778,13.6703783 C9.282,13.1688651 10.038,13.1688651 10.542,13.6703783 L12.18,15.3002961 L18.858,8.65524671 C19.362,8.15373355 20.118,8.15373355 20.622,8.65524671 C21.126,9.15675987 21.126,9.90902961 20.622,10.4105428 L13.062,17.9332401 C12.558,18.4347533 11.802,18.4347533 11.298,17.9332401 L8.778,15.4256743 Z" id="Shape" fill="#FFFFFF"></path>
                    </g>
                </g>
            </g>
            <g id="Group-15" transform="translate(0.000000, 39.000000)">
                <g id="Page-1-Copy-7" transform="translate(0.000000, 6.481481)">
                    <mask id="mask-20" fill="white">
                        <use xlink:href="#path-19"></use>
                    </mask>
                    <g id="Mask">
                        <use fill="#FFFFFF" fill-rule="evenodd" xlink:href="#path-19"></use>
                        <ellipse stroke="#E0E4EB" stroke-width="2.60000014" cx="49.4" cy="49.2592593" rx="50.7000001" ry="50.5592593"></ellipse>
                    </g>
                    <g id="Page-1" mask="url(#mask-20)">
                        <g transform="translate(2.600000, 2.592593)">
                            <polygon id="Fill-1" fill="#FFFFFF" points="0 93.3333333 93.6 93.3333333 93.6 0 0 0"></polygon>
                            <g id="Group-4" stroke-width="1" fill="none" transform="translate(47.174400, 41.066667)">
                                <mask id="mask-22" fill="white">
                                    <use xlink:href="#path-21"></use>
                                </mask>
                                <g id="Clip-3"></g>
                                <polygon id="Fill-2" fill="#3E82F1" mask="url(#mask-22)" points="-16.2107712 44.32288 45.0320832 44.32288 45.0320832 -16.1421867 -16.2107712 -16.1421867"></polygon>
                            </g>
                            <g id="Group-7" stroke-width="1" fill="none" transform="translate(20.966400, 52.266667)">
                                <mask id="mask-24" fill="white">
                                    <use xlink:href="#path-23"></use>
                                </mask>
                                <g id="Clip-6"></g>
                                <polygon id="Fill-5" fill="#32A753" mask="url(#mask-24)" points="-16.4271744 40.26624 62.4229632 40.26624 62.4229632 -16.37888 -16.4271744 -16.37888"></polygon>
                            </g>
                            <g id="Group-10" stroke-width="1" fill="none" transform="translate(17.222400, 32.853333)">
                                <mask id="mask-26" fill="white">
                                    <use xlink:href="#path-25"></use>
                                </mask>
                                <g id="Clip-9"></g>
                                <polygon id="Fill-8" fill="#F9BB00" mask="url(#mask-26)" points="-15.8288832 43.4365867 30.0508416 43.4365867 30.0508416 -15.8091733 -15.8288832 -15.8091733"></polygon>
                            </g>
                            <g id="Group-13" stroke-width="1" fill="none" transform="translate(20.966400, 17.173333)">
                                <mask id="mask-28" fill="white">
                                    <use xlink:href="#path-27"></use>
                                </mask>
                                <g id="Clip-12"></g>
                                <polygon id="Fill-11" fill="#E74133" mask="url(#mask-28)" points="-16.4271744 40.2714667 62.6386176 40.2714667 62.6386176 -16.3736533 -16.4271744 -16.3736533"></polygon>
                            </g>
                        </g>
                    </g>
                </g>
                <g id="Status/Ok" transform="translate(66.300000, 0.000000)">
                    <g>
                        <path d="M19.1591902,38.3183805 C8.57786165,38.3183805 0,29.7405188 0,19.1591902 C0,8.57786165 8.57786165,0 19.1591902,0 C29.7405188,0 38.3183805,8.57786165 38.3183805,19.1591902 C38.3183805,29.7405188 29.7405188,38.3183805 19.1591902,38.3183805 Z" id="Oval-221" fill="#FFFFFF" fill-rule="nonzero"></path>
                        <path d="M19.1591902,35.5145965 C28.1920317,35.5145965 35.5145965,28.1920317 35.5145965,19.1591902 C35.5145965,10.1263488 28.1920317,2.80378394 19.1591902,2.80378394 C10.1263488,2.80378394 2.80378394,10.1263488 2.80378394,19.1591902 C2.80378394,28.1920317 10.1263488,35.5145965 19.1591902,35.5145965 Z" id="Path" fill="#22C646"></path>
                        <path d="M11.7198169,20.5953609 C11.0469087,19.9257731 11.0469087,18.9213912 11.7198169,18.2518034 C12.392725,17.5822155 13.4020872,17.5822155 14.0749954,18.2518034 L16.2619468,20.427964 L25.1779798,11.5559246 C25.8508879,10.8863367 26.8602501,10.8863367 27.5331583,11.5559246 C28.2060664,12.2255125 28.2060664,13.2298943 27.5331583,13.8994822 L17.4395361,23.9433003 C16.7666279,24.6128882 15.7572657,24.6128882 15.0843576,23.9433003 L11.7198169,20.5953609 Z" id="Shape" fill="#FFFFFF"></path>
                    </g>
                </g>
            </g>
        </g>
    </g>
</svg>